<svg width="30" height="25" viewBox="0 0 30 25" xmlns="http://www.w3.org/2000/svg">
  <path d="M21.005 9.72c.795.249 1.378.983 1.38 1.859v9.957c0 1.08-.88 1.958-1.962 1.958H9.962A1.963 1.963 0 0 1 8 21.536v-9.957c0-.876.582-1.61 1.377-1.86V7.415A5.424 5.424 0 0 1 14.798 2h.786c2.99 0 5.421 2.428 5.421 5.415v2.304zm-9.667-2.305V9.62h7.706V7.415a3.462 3.462 0 0 0-3.46-3.456h-.786a3.462 3.462 0 0 0-3.46 3.456zm9.083 14.122V11.58H9.962v9.957h10.46zm-5.653-2.521a.601.601 0 0 1-.61-.676l.11-1.054a.718.718 0 0 1 .142-.34.852.852 0 0 1-.071-.336c0-.467.382-.85.85-.85.468 0 .85.383.85.85 0 .12-.026.232-.07.336a.73.73 0 0 1 .143.34l.112 1.054a.6.6 0 0 1-.608.676h-.848z" fill="#000" fill-rule="nonzero"/>
</svg>