<svg xmlns="http://www.w3.org/2000/svg" width="90" height="100" viewBox="0 0 90 100">
  <path fill="#FFF" stroke="#B6883A" stroke-linecap="round" stroke-linejoin="round" stroke-miterlimit="10" d="M7.2 44.5c0-8.3 6.7-15 15-15s15 6.7 15 15c0 7.6-5.6 13.8-12.9 14.9-.2.5-.3 1-.3 1.5 0 1 .3 1.8.9 2.5-2.4-.5-4.2-2-4.5-4-7.3-.8-13.2-7.2-13.2-14.9z"/>
  <path fill="#FFF" stroke="#FFF" stroke-linecap="round" stroke-linejoin="round" stroke-miterlimit="10" d="M63.7 32.3c.1 2.2 0 2.1-.6 4.2-1.1 4-1.4 5.8-2.1 8.8 0 .9-3.1 1.7-6.8 1.7-3.8 0-6.8-.7-6.8-1.7-.7-3-1-4.8-2.1-8.8-.6-2.1-.7-2-.6-4.2"/>
  <path fill="#E0E0E0" d="M56.8 78.5c6.4 3.7 6.4 9.7.1 13.4-6.4 3.7-16.7 3.7-23.1 0s-6.4-9.7-.1-13.4c6.4-3.7 16.7-3.7 23.1 0z"/>
  <path fill="#FFF" stroke="#B6883A" stroke-linecap="round" stroke-linejoin="round" stroke-miterlimit="10" d="M82.8 34.5C82.8 18.7 70 5.8 54.1 5.8S25.4 18.7 25.4 34.5C25.4 49 36.1 60.9 50 62.9c.3.9.5 2 .5 2.9 0 1.8-.6 3.4-1.7 4.8 4.5-.9 7.9-3.9 8.6-7.7 14.3-1.5 25.4-13.6 25.4-28.4z"/>
  <path fill="none" stroke="#000" stroke-miterlimit="10" d="M51.6 42l-.1-1.2c-.3-2.5.6-5.2 2.9-8 2.1-2.4 3.2-4.2 3.2-6.3 0-2.4-1.5-3.9-4.4-4-1.7 0-3.5.6-4.7 1.4L47.4 21c1.5-1.1 4.1-1.8 6.6-1.8 5.3 0 7.7 3.3 7.7 6.8 0 3.1-1.7 5.4-4 8-2 2.4-2.8 4.4-2.6 6.8V42h-3.5zm-1.1 6.4c0-1.7 1.2-2.9 2.8-2.9 1.6 0 2.7 1.2 2.7 2.9 0 1.6-1.1 2.9-2.8 2.9-1.6 0-2.7-1.2-2.7-2.9z"/>
</svg>