<svg xmlns="http://www.w3.org/2000/svg" width="90" height="100" viewBox="0 0 90 100">
  <path fill="#FFF" stroke="#B6883A" stroke-linecap="round" stroke-linejoin="round" stroke-miterlimit="10" d="M82.8 34.5C82.8 18.7 70 5.8 54.1 5.8S25.4 18.7 25.4 34.5C25.4 49 36.1 60.9 50 62.9c.3.9.5 2 .5 2.9 0 1.8-.6 3.4-1.7 4.8 4.5-.9 7.9-3.9 8.6-7.7 14.3-1.5 25.4-13.6 25.4-28.4z"/>
  <path fill="#FFF" stroke="#B6883A" stroke-linecap="round" stroke-linejoin="round" stroke-miterlimit="10" d="M7.2 44.5c0-8.3 6.7-15 15-15s15 6.7 15 15c0 7.6-5.6 13.8-12.9 14.9-.2.5-.3 1-.3 1.5 0 1 .3 1.8.9 2.5-2.4-.5-4.2-2-4.5-4-7.3-.8-13.2-7.2-13.2-14.9z"/>
  <path fill="#FFF" stroke="#1D1D1B" stroke-linecap="round" stroke-linejoin="round" stroke-miterlimit="10" d="M65.8 28.2c4.1-2.5 7.5-1.3 6.6 4.4s-4.7 7.5-7.9 6.6"/>
  <path fill="#FFF" stroke="#1D1D1B" stroke-linecap="round" stroke-linejoin="round" stroke-miterlimit="10" d="M67 23.2c.1 3.2 0 7.2-.8 10.3-1.5 5.9-1.9 8.5-2.9 13 0 1.3-4.1 2.4-9.2 2.4s-9.2-1.1-9.2-2.4c-1-4.5-1.4-7.1-2.9-13-.8-3.1-.9-7.2-.8-10.3 0-1.9 5.8-3.4 12.9-3.4S67 21.3 67 23.2z"/>
  <path fill="#FFF" stroke="#FFF" stroke-linecap="round" stroke-linejoin="round" stroke-miterlimit="10" d="M63.7 32.3c.1 2.2 0 2.1-.6 4.2-1.1 4-1.4 5.8-2.1 8.8 0 .9-3.1 1.7-6.8 1.7-3.8 0-6.8-.7-6.8-1.7-.7-3-1-4.8-2.1-8.8-.6-2.1-.7-2-.6-4.2"/>
  <path fill="#FFF" stroke="#1D1D1B" stroke-linecap="round" stroke-linejoin="round" stroke-miterlimit="10" d="M44.5 34.7c0 1.3 4.3 2.3 9.6 2.3s9.6-1 9.6-2.3v-2.5c0-1.3-4.3-2.3-9.6-2.3s-9.6 1-9.6 2.3v2.5z"/>
  <path fill="#FFF" stroke="#1D1D1B" stroke-linecap="round" stroke-linejoin="round" stroke-miterlimit="10" d="M41.2 23.2c0 1.9 5.8 3.4 12.9 3.4S67 25.1 67 23.2"/>
  <path fill="#FFF" stroke="#1D1D1B" stroke-linecap="round" stroke-linejoin="round" stroke-miterlimit="10" d="M21.5 43c.2-2.5.4-5 2.1-7.5-3.4-.1-6.8 2.5-8.1 6.6-1.4 4.1-.1 8.4 2.9 10.2 2.7-3.4 2.9-6.4 3.1-9.3z"/>
  <path fill="#FFF" stroke="#1D1D1B" stroke-linecap="round" stroke-linejoin="round" stroke-miterlimit="10" d="M25.8 36c-1.9 2.2-2 4.4-2.2 7.1-.2 3-.4 6.3-3.2 9.9 3.6.7 7.6-2 9-6.5 1.4-4.4-.2-8.9-3.6-10.5z"/>
  <path fill="#E0E0E0" d="M56.8 78.5c6.4 3.7 6.4 9.7.1 13.4-6.4 3.7-16.7 3.7-23.1 0s-6.4-9.7-.1-13.4c6.4-3.7 16.7-3.7 23.1 0z"/>
</svg>