<svg width="42" height="42" viewBox="0 0 42 42" fill="none" xmlns="http://www.w3.org/2000/svg">
<path d="M21 42C17.22 42 13.6967 41.0433 10.43 39.13C7.25667 37.2633 4.73667 34.7433 2.87 31.57C0.956667 28.3033 2.08616e-07 24.78 2.08616e-07 21C2.08616e-07 17.22 0.956667 13.6967 2.87 10.43C4.73667 7.25666 7.25667 4.73666 10.43 2.87C13.6967 0.956665 17.22 -8.34465e-07 21 -8.34465e-07C24.78 -8.34465e-07 28.3033 0.956665 31.57 2.87C34.7433 4.73666 37.2633 7.25666 39.13 10.43C41.0433 13.6967 42 17.22 42 21C42 24.78 41.0433 28.3033 39.13 31.57C37.2633 34.7433 34.7433 37.2633 31.57 39.13C28.3033 41.0433 24.78 42 21 42ZM19.25 10.5V24.5H22.75V10.5H19.25ZM19.25 28V31.5H22.75V28H19.25Z" fill="black"/>
</svg>
