<svg xmlns="http://www.w3.org/2000/svg" width="165" height="30" viewBox="0 0 220 40">
  <g fill="#000000">
    <path d="M41.2 19.7c0 4.5-1.6 8.4-4.8 11.6-3.3 3.3-7.1 4.9-11.7 4.9-4.5 0-8.4-1.6-11.6-4.9-3.2-3.2-4.8-7.1-4.8-11.6s1.6-8.3 4.8-11.5 7-4.8 11.5-4.8S33 5 36.2 8.2c3.3 3.2 5 7 5 11.5zm-3.5-.1c-.1-3.6-1.4-6.7-3.9-9.2-2.6-2.5-5.7-3.7-9.3-3.7-3.5.1-6.4 1.4-8.9 3.9s-3.7 5.5-3.7 9c0 3.6 1.2 6.7 3.7 9.3s5.6 3.9 9.1 3.9c3.6 0 6.6-1.3 9.2-3.9 2.6-2.6 3.8-5.7 3.8-9.3z"/>
    <path d="M65.5 35.5h-4.2l-9.6-13.9h-1v13.9h-3.5V3.8h6c3 0 5.5.7 7.3 2 2.1 1.5 3.1 3.9 3 6.9-.1 2.7-.9 4.7-2.4 6.2-1.4 1.4-3.3 2.1-5.7 2.3l10.1 14.3zM60 12.8c0-3.7-2.1-5.6-6.4-5.6h-2.8v11.5h2.3c1.8 0 3.4-.5 4.7-1.5 1.5-1.2 2.2-2.6 2.2-4.4z"/>
    <path d="M76.5 35.5h-3.6V3.8h3.6v31.7z"/>
    <path d="M115 19.7V22c-.1 4.2-1.7 7.7-5 10.4-3 2.5-6.4 3.7-10 3.6-4.5-.2-8.3-1.8-11.4-4.9-3.2-3.2-4.8-7-4.8-11.4 0-4.3 1.6-8.1 4.7-11.3 3.1-3.2 6.9-4.9 11.2-5 5.9-.2 10.5 2.1 13.9 6.9l-2.4 2.3-.5-.6c-3.2-3.7-6.8-5.4-10.8-5.3-3.5.1-6.4 1.4-8.9 4s-3.6 5.6-3.6 9.1 1.2 6.5 3.7 9.1 5.4 3.8 8.9 3.9c2.3.1 4.6-.7 7-2.3 2.7-1.8 4.1-3.9 4.2-6.4v-1.2h-9.3v-3.1H115z"/>
    <path d="M126.5 35.5h-3.6V3.8h3.6v31.7z"/>
    <path d="M162.1 37.2l-24.5-25.8v24.2H134v-33l24.6 26.1V3.8h3.6v33.4z"/>
    <path d="M196 35.5h-3.9l-3.6-9h-13.8l-3.8 9h-3.7l14.7-33 14.1 33zm-9-12.3l-5.2-12.7-5.6 12.7H187z"/>
    <path d="M214.2 35.5h-12.1V3.8h3.6v28.4h8.5v3.3z"/>
  </g>
</svg>