<svg xmlns="http://www.w3.org/2000/svg" viewBox="0 0 80 100">
	<path fill="#E0E0E0" d="M65.6 72c2.4 1.4 2.4 3.6 0 5L31 97.1c-2.4 1.4-6.2 1.4-8.6 0L3.1 85.9c-2.4-1.4-2.4-3.6 0-5l34.6-20.1c2.4-1.4 6.2-1.4 8.6 0L65.6 72z"/>
	<path fill="#CC9F03" d="M25 32.4V21c0-2.2.7-4.7 2.1-7 1.3-2.3 3.1-4.2 5.1-5.3 2-1.2 3.9-1.3 5.4-.5 1.4.8 2.2 2.5 2.2 4.8v11.4h-1V13c0-1.9-.6-3.4-1.8-4-1.1-.7-2.7-.5-4.4.5-1.8 1-3.4 2.8-4.7 5C26.6 16.6 26 19 26 21v11.4h-1z"/>
	<path fill="#FFF" d="M12.9 33.5l38.7-22.6 5 3.3 7.1 45.1-43.4 26-15.4-9.6 8-42.2 4.4 2.9"/>
	<path fill="#1D1D1B" d="M20.3 85.8c-.1 0-.2 0-.3-.1L4.7 76.1c-.2-.1-.3-.3-.2-.5l8-42.2c0-.1.1-.2.2-.3l38.6-22.6c.2-.1.4-.1.5 0l5 3.3c.1.1.2.2.2.3l7.1 45.2c0 .2-.1.4-.2.5l-43.5 26h-.1zM5.5 75.4l14.8 9.3L63.2 59l-7-44.6-4.6-3-37.7 22.1 3.7 2.5c.2.2.3.5.1.7-.2.2-.5.3-.7.1l-3.8-2.5-7.7 41.1z"/>
	<path fill="#FFF" d="M43.4 21.1v-5.3c0-2.2-.8-3.7-2-4.4-1.3-.7-3-.6-4.9.5-1.9 1.1-3.6 3-4.9 5.1s-2 4.6-2 6.8v5.3"/>
	<path fill="#CC9F03" d="M29.6 29.6c-.3 0-.5-.2-.5-.5v-5.3c0-2.2.7-4.7 2.1-7 1.3-2.3 3.1-4.2 5.1-5.3 2-1.2 3.9-1.3 5.4-.5 1.5.8 2.3 2.6 2.3 4.9v5.3c0 .3-.2.5-.5.5s-.5-.2-.5-.5v-5.3c0-1.9-.6-3.4-1.8-4-1.1-.7-2.7-.5-4.4.5-1.8 1-3.4 2.8-4.7 5-1.3 2.2-1.9 4.5-1.9 6.5v5.3c-.1.2-.3.4-.6.4z"/>
	<path fill="#FFF" d="M56 13.8L17.3 36.4 19.7 85l-8-12.2-6.8 2.9"/>
	<path fill="#1D1D1B" d="M19.7 85.5c-.2 0-.3-.1-.4-.2l-7.8-11.9-6.4 2.7c-.3.1-.5 0-.7-.3-.1-.3 0-.5.3-.7l6.7-2.9c.2-.1.5 0 .6.2l7 10.7-2.3-46.7c0-.2.1-.4.2-.5l38.6-22.6c.2-.1.5-.1.7.2.1.2.1.5-.2.7L17.8 36.7 20.1 85c0 .2-.1.4-.3.5h-.1z"/>
	<g fill="#1D1D1D">
		<path d="M31.9 41.2c2.9-1.7 5.8-2.1 7.6-1.1.4.2 1.9 1 2.5 1.5 1.2 1 2.8 2.7 4.2 4v-8.5l2-1.1.1 16.8c-2.2-.9-4.4-3.8-6.1-5.4-.2-.2-3.2-3.3-4.6-4.3-1-.9-3-1.4-4.3-1.3-1.1.1-2.1.4-3.1 1-.5.3-1.1.7-1.8 1.2v-.2c1.1-1 2.3-1.9 3.5-2.6z"/>
		<path d="M34.7 43.3c2.2.9 4.4 3.8 6.1 5.4.2.2 3.3 3.3 4.6 4.3 1 .9 2.9 1.5 4.2 1.3 1.1-.1 2-.4 3.1-1 .5-.3 1.1-.7 1.8-1.2v.2c-1.1 1.1-2.3 2-3.6 2.7-2.9 1.7-5.8 2.1-7.6 1-.3-.1-1.8-1-2.3-1.5-1.2-1-2.8-2.7-4.2-4V59l-2 1.1-.1-16.8z"/>
	</g>
	<path fill="#FFF" d="M11.7 72.8c0-2.6 3.7-37.4 3.7-37.4"/>
	<path fill="#1D1D1B" d="M11.7 73.3c-.3 0-.5-.2-.5-.5 0-2.6 3.5-36 3.7-37.4 0-.3.3-.5.5-.4.3 0 .5.3.4.5 0 .3-3.7 34.8-3.7 37.3.1.2-.1.5-.4.5z"/>
	<circle fill="#FFF" cx="65.3" cy="22.9" r="12.9"/>
	<path fill="#CC9F03" d="M65.3 36.3c-7.4 0-13.4-6-13.4-13.4S58 9.5 65.3 9.5s13.4 6 13.4 13.4-6 13.4-13.4 13.4zm0-25.8c-6.8 0-12.4 5.6-12.4 12.4s5.6 12.4 12.4 12.4 12.4-5.6 12.4-12.4-5.5-12.4-12.4-12.4z"/>
	<circle fill="#FFF" cx="65.3" cy="5.4" r="3"/>
	<path fill="#CC9F03" d="M65.3 8.9c-1.9 0-3.5-1.6-3.5-3.5s1.6-3.5 3.5-3.5 3.5 1.6 3.5 3.5-1.5 3.5-3.5 3.5zm0-6c-1.4 0-2.5 1.1-2.5 2.5s1.1 2.5 2.5 2.5 2.5-1.1 2.5-2.5-1.1-2.5-2.5-2.5zm0 9.9c-.3 0-.6-.2-.6-.6v-1.6c0-.3.2-.6.6-.6s.6.2.6.6v1.6c0 .3-.3.6-.6.6zm0 23c-.3 0-.6-.2-.6-.6v-1.6c0-.3.2-.6.6-.6s.6.2.6.6v1.6c0 .3-.3.6-.6.6zM60 14.2c-.2 0-.4-.1-.5-.3l-.8-1.4c-.2-.3-.1-.6.2-.8.3-.2.6-.1.8.2l.8 1.4c.2.3.1.6-.2.8-.1.1-.2.1-.3.1zm11.5 19.9c-.2 0-.4-.1-.5-.3l-.8-1.4c-.2-.3-.1-.6.2-.8.3-.2.6-.1.8.2l.8 1.4c.2.3.1.6-.2.8-.1.1-.2.1-.3.1zm-15.4-16c-.1 0-.2 0-.3-.1l-1.4-.8c-.3-.2-.4-.5-.2-.8.2-.3.5-.4.8-.2l1.4.8c.3.2.4.5.2.8-.2.2-.3.3-.5.3zM76 29.6c-.1 0-.2 0-.3-.1l-1.4-.8c-.3-.2-.4-.5-.2-.8.2-.3.5-.4.8-.2l1.4.8c.3.2.4.5.2.8-.1.2-.3.3-.5.3zm-21.4-6.1H53c-.3 0-.6-.2-.6-.6s.2-.6.6-.6h1.6c.3 0 .6.2.6.6s-.3.6-.6.6zm23.1 0H76c-.3 0-.6-.2-.6-.6s.2-.6.6-.6h1.6c.3 0 .6.2.6.6s-.2.6-.5.6zm-23 6.1c-.2 0-.4-.1-.5-.3-.2-.3-.1-.6.2-.8l1.4-.8c.3-.2.6-.1.8.2.2.3.1.6-.2.8l-1.4.8c-.1.1-.2.1-.3.1zm19.9-11.5c-.2 0-.4-.1-.5-.3-.2-.3-.1-.6.2-.8l1.4-.8c.3-.2.6-.1.8.2.2.3.1.6-.2.8l-1.4.8c-.1.1-.2.1-.3.1zm-15.4 16c-.1 0-.2 0-.3-.1-.3-.2-.4-.5-.2-.8l.8-1.4c.2-.3.5-.4.8-.2.3.2.4.5.2.8l-.8 1.4c-.1.2-.3.3-.5.3zm11.5-19.9c-.1 0-.2 0-.3-.1-.3-.2-.4-.5-.2-.8L71 12c.2-.3.5-.4.8-.2.3.2.4.5.2.8l-.8 1.4c-.1.1-.3.2-.5.2z"/>
	<text transform="matrix(1.0337 0 0 1 59.666 25.224)" fill="#CC9F03" font-family="'NespressoLucas-Bold'" font-size="8" letter-spacing="1">
		1h
	</text>
	<g fill="#1D1D1B">
		<path d="M75.3 11.3c-.1 0-.1 0-.2-.1l-4.6-2.7c-.2-.1-.2-.3-.1-.5s.3-.2.5-.1l4.6 2.7c.2.1.2.3.1.5 0 .2-.1.2-.3.2z"/>
		<path d="M71.9 12c-.1 0-.1 0-.2-.1-.2-.1-.2-.3-.1-.5l1.1-1.8c.1-.2.3-.2.5-.1s.2.3.1.5l-1.1 1.8c-.1.1-.2.2-.3.2z"/>
	</g>
	<g fill="#CC9F03">
		<path d="M75.3 11.3c-.1 0-.1 0-.2-.1l-4.6-2.7c-.2-.1-.2-.3-.1-.5s.3-.2.5-.1l4.6 2.7c.2.1.2.3.1.5 0 .2-.1.2-.3.2z"/>
		<path d="M71.9 12c-.1 0-.1 0-.2-.1-.2-.1-.2-.3-.1-.5l1.1-1.8c.1-.2.3-.2.5-.1s.2.3.1.5l-1.1 1.8c-.1.1-.2.2-.3.2z"/>
	</g>
	<g fill="none" stroke="#CC9F03" stroke-linecap="round" stroke-linejoin="round" stroke-miterlimit="10">
		<path d="M75.3 11.3c-.1 0-.1 0-.2-.1l-4.6-2.7c-.2-.1-.2-.3-.1-.5s.3-.2.5-.1l4.6 2.7c.2.1.2.3.1.5 0 .2-.1.2-.3.2z"/>
		<path d="M71.9 12c-.1 0-.1 0-.2-.1-.2-.1-.2-.3-.1-.5l1.1-1.8c.1-.2.3-.2.5-.1s.2.3.1.5l-1.1 1.8c-.1.1-.2.2-.3.2z"/>
	</g>
	<path fill="#CC9F03" d="M65.3 10.4c-.3 0-.6-.3-.6-.6V6.5c0-.3.3-.6.6-.6s.6.3.6.6v3.3c0 .3-.2.6-.6.6z"/>
</svg>
