<?xml version="1.0" encoding="utf-8"?>
<!-- Generator: Adobe Illustrator 15.0.0, SVG Export Plug-In . SVG Version: 6.00 Build 0)  -->
<!DOCTYPE svg PUBLIC "-//W3C//DTD SVG 1.1//EN" "http://www.w3.org/Graphics/SVG/1.1/DTD/svg11.dtd">
<svg version="1.1" id="Calque_2" xmlns="http://www.w3.org/2000/svg" xmlns:xlink="http://www.w3.org/1999/xlink" x="0px" y="0px"
	 width="200px" height="224px" viewBox="0 0 305.585 342.417" enable-background="new 0 0 305.585 342.417"
	 xml:space="preserve">
<g>
	<rect x="189.561" y="173.167" fill="#332414" width="5.653" height="168.811"/>
	
		<rect x="163.234" y="177.192" transform="matrix(-0.866 0.5 -0.5 -0.866 424.611 351.1675)" fill="#332414" width="4.039" height="110.568"/>
	
		<rect x="200.131" y="177.815" transform="matrix(0.9168 0.3994 -0.3994 0.9168 98.2054 -63.9288)" fill="#332414" width="4.766" height="51.771"/>
</g>
<linearGradient id="SVGID_1_" gradientUnits="userSpaceOnUse" x1="70.8276" y1="230.2554" x2="275.2192" y2="230.2554" gradientTransform="matrix(0.8077 0 0 -0.8077 -55.5077 302.0034)">
	<stop  offset="0.0616" style="stop-color:#7FAD78"/>
	<stop  offset="0.2263" style="stop-color:#7BAA74"/>
	<stop  offset="0.4013" style="stop-color:#6FA367"/>
	<stop  offset="0.5811" style="stop-color:#5B9652"/>
	<stop  offset="0.7643" style="stop-color:#408434"/>
	<stop  offset="0.9484" style="stop-color:#1C6D0E"/>
	<stop  offset="1" style="stop-color:#116602"/>
</linearGradient>
<path fill="url(#SVGID_1_)" d="M166.458,146.931c-9.045-1.131-17.123-7.431-20.111-16.639c-2.987-9.208-0.161-19.063,6.461-25.362
	c-6.622-6.3-9.53-16.073-6.461-25.362c0.89-2.826,2.343-5.41,4.039-7.592c-0.727-2.988-2.02-5.979-3.957-8.643
	c-7.351-10.098-20.84-12.924-31.5-7.027c-0.728-1.775-1.696-3.473-2.828-5.089c-7.592-10.419-21.889-13.084-32.711-6.381
	c-0.728-2.181-1.858-4.199-3.231-6.14c-7.916-10.902-23.181-13.326-34.085-5.41c-3.068,2.262-5.412,5.008-7.107,8.158
	c-7.351-2.666-15.912-1.777-22.777,3.148C1.284,52.509-1.139,67.774,6.776,78.679c0.646,0.969,1.454,1.775,2.181,2.584
	c-8.481,8.318-9.773,21.809-2.584,31.743c3.392,4.685,8.158,7.835,13.408,9.208c-7.592,8.4-8.562,21.242-1.696,30.773
	c3.959,5.491,9.854,8.805,16.074,9.772c-1.373,6.462-0.081,13.474,4.119,19.29c7.188,9.854,20.273,12.762,30.773,7.432
	c0.646,1.373,1.373,2.664,2.343,3.877c7.915,10.902,23.181,13.326,34.085,5.41c3.313-2.424,5.814-5.492,7.512-8.885
	c8.158,4.848,18.658,4.687,26.816-1.211c7.35-5.332,10.822-14.056,9.935-22.44c4.282-0.322,8.562-1.857,12.276-4.604
	c1.857-1.292,3.396-2.827,4.769-4.523C165.895,153.877,165.813,150.403,166.458,146.931z"/>
<g>
	
		<linearGradient id="SVGID_2_" gradientUnits="userSpaceOnUse" x1="190.2134" y1="372.3589" x2="190.2134" y2="284.6929" gradientTransform="matrix(0.8077 0 0 -0.8077 -55.5077 302.0034)">
		<stop  offset="0" style="stop-color:#7FAD78"/>
		<stop  offset="0.2122" style="stop-color:#619958"/>
		<stop  offset="0.6768" style="stop-color:#146806"/>
		<stop  offset="0.6962" style="stop-color:#116602"/>
	</linearGradient>
	<path fill="url(#SVGID_2_)" d="M150.386,72.056c3.957-5.008,9.772-8.318,16.072-9.127c-1.453-7.915,0.971-16.234,6.946-22.05
		c-0.727-1.696-1.614-3.394-2.746-4.929c-7.352-10.096-20.838-12.922-31.5-7.025c-0.728-1.777-1.696-3.475-2.827-5.089
		c-7.592-10.419-21.889-13.085-32.712-6.382c-0.728-2.18-1.858-4.199-3.231-6.139c-7.916-10.904-23.18-13.326-34.084-5.41
		c-3.069,2.26-5.412,5.008-7.108,8.156c-0.97-0.322-1.856-0.646-2.827-0.808c-5.089-2.021-10.984-2.423-16.639-0.565
		c-11.792,3.797-18.658,15.75-16.479,27.624c3.959-0.565,7.997-0.081,11.713,1.292c1.695-3.15,4.039-5.896,7.107-8.158
		c10.904-7.914,26.169-5.492,34.085,5.412c1.373,1.938,2.504,4.038,3.231,6.139c10.742-6.784,25.119-4.118,32.711,6.382
		c1.131,1.614,2.101,3.312,2.828,5.089c10.662-5.816,24.149-2.989,31.5,7.025C148.365,66.079,149.658,68.987,150.386,72.056z"/>
	
		<linearGradient id="SVGID_3_" gradientUnits="userSpaceOnUse" x1="258.7134" y1="168.6938" x2="258.7134" y2="168.6938" gradientTransform="matrix(0.8077 0 0 -0.8077 -55.5077 302.0034)">
		<stop  offset="0" style="stop-color:#FFFFFF"/>
		<stop  offset="0.222" style="stop-color:#DEEADC"/>
		<stop  offset="0.5793" style="stop-color:#AECBA9"/>
		<stop  offset="0.8498" style="stop-color:#90B88A"/>
		<stop  offset="1" style="stop-color:#85B17E"/>
	</linearGradient>
	<path fill="url(#SVGID_3_)" d="M153.455,165.75"/>
	
		<linearGradient id="SVGID_4_" gradientUnits="userSpaceOnUse" x1="275.3647" y1="177.4478" x2="275.3647" y2="179.2186" gradientTransform="matrix(0.8077 0 0 -0.8077 -55.5077 302.0034)">
		<stop  offset="0" style="stop-color:#FFFFFF"/>
		<stop  offset="0.222" style="stop-color:#DEEADC"/>
		<stop  offset="0.5793" style="stop-color:#AECBA9"/>
		<stop  offset="0.8498" style="stop-color:#90B88A"/>
		<stop  offset="1" style="stop-color:#85B17E"/>
	</linearGradient>
	<path fill="url(#SVGID_4_)" d="M167.106,158.643c-0.162-0.485-0.242-0.97-0.404-1.454"/>
</g>
<linearGradient id="SVGID_5_" gradientUnits="userSpaceOnUse" x1="248.6011" y1="244.0034" x2="444.4302" y2="244.0034" gradientTransform="matrix(0.8077 0 0 -0.8077 -55.5077 302.0034)">
	<stop  offset="0.0616" style="stop-color:#7FAD78"/>
	<stop  offset="0.2021" style="stop-color:#79A972"/>
	<stop  offset="0.3977" style="stop-color:#689E60"/>
	<stop  offset="0.6257" style="stop-color:#4D8C42"/>
	<stop  offset="0.8763" style="stop-color:#267419"/>
	<stop  offset="1" style="stop-color:#116602"/>
</linearGradient>
<path fill="url(#SVGID_5_)" d="M295.774,104.93c6.623-6.3,9.531-16.073,6.461-25.362c-3.068-9.287-11.064-15.508-20.111-16.639
	c1.697-8.965-1.777-18.577-9.611-24.313c-7.916-5.734-18.094-6.058-26.09-1.614c-3.877-8.239-12.357-13.974-22.049-13.974
	c-9.693,0-18.174,5.733-22.051,13.974c-7.996-4.362-18.174-4.12-26.09,1.614c-7.916,5.734-11.308,15.348-9.611,24.313
	c-9.047,1.131-17.123,7.432-20.111,16.639c-2.989,9.209-0.162,19.063,6.461,25.362c-6.623,6.3-9.531,16.073-6.461,25.362
	c3.068,9.287,11.064,15.508,20.111,16.639c-1.695,8.967,1.777,18.577,9.611,24.313c7.916,5.718,18.094,6.042,26.09,1.6
	c3.877,8.237,12.356,13.974,22.051,13.974c9.691,0,18.172-5.734,22.049-13.974c7.996,4.36,18.174,4.118,26.09-1.6
	c7.916-5.735,11.311-15.348,9.611-24.313c9.047-1.131,17.123-7.431,20.111-16.639C305.225,121.084,302.397,111.229,295.774,104.93z"
	/>
<g>
	<polyline fill="#332414" points="128.657,282.207 128.657,321.38 125.751,321.38 125.751,282.207 	"/>
	<path fill="#85B17E" d="M119.692,279.138c6.785,6.221,7.027,17.043,7.027,17.043s-10.823,0.727-17.608-5.412
		s-7.026-17.041-7.026-17.041S112.907,272.917,119.692,279.138z"/>
	<polyline fill="#332414" points="145.458,266.861 145.458,306.035 142.55,306.035 142.55,266.861 	"/>
	<path fill="#116602" d="M136.492,263.791c6.785,6.221,7.027,17.043,7.027,17.043s-10.823,0.729-17.608-5.412
		c-6.785-6.219-7.027-17.041-7.027-17.041S129.708,257.572,136.492,263.791z"/>
	<path fill="#85B17E" d="M152.242,283.742c-2.987,2.988-7.996,2.746-7.996,2.746s-0.081-5.008,2.908-7.916
		c2.989-2.988,7.997-2.746,7.997-2.746S155.313,280.753,152.242,283.742z"/>
	<polyline fill="#332414" points="158.866,294.404 158.866,333.578 155.958,333.578 155.958,294.404 	"/>
	<path fill="#85B17E" d="M150.225,292.949c6.785,6.221,7.027,17.043,7.027,17.043s-10.824,0.728-17.609-5.412
		c-6.784-6.137-7.026-17.041-7.026-17.041S143.44,286.732,150.225,292.949z"/>
	<path fill="#116602" d="M165.733,311.205c-2.988,2.987-7.996,2.746-7.996,2.746s-0.08-5.009,2.908-7.916
		c2.987-2.988,7.996-2.746,7.996-2.746S168.72,308.296,165.733,311.205z"/>
	<path fill="#116602" d="M135.524,299.007c-2.989,2.988-7.997,2.746-7.997,2.746s-0.081-5.008,2.908-7.916
		c2.988-2.988,7.996-2.746,7.996-2.746S138.511,296.099,135.524,299.007z"/>
</g>
<path fill="#116602" d="M166.541,291.416"/>
</svg>
